<?xml version="1.0" encoding="UTF-8" standalone="no"?>
<!-- Created with Inkscape (http://www.inkscape.org/) -->

<svg
   width="128mm"
   height="128mm"
   viewBox="0 0 128 128"
   version="1.1"
   id="svg1"
   sodipodi:docname="klaeppid_kloppy.svg"
   inkscape:version="1.3.2 (091e20ef0f, 2023-11-25)"
   inkscape:export-filename="klaeppid_kloppy.png"
   inkscape:export-xdpi="96"
   inkscape:export-ydpi="96"
   xmlns:inkscape="http://www.inkscape.org/namespaces/inkscape"
   xmlns:sodipodi="http://sodipodi.sourceforge.net/DTD/sodipodi-0.dtd"
   xmlns="http://www.w3.org/2000/svg"
   xmlns:svg="http://www.w3.org/2000/svg">
  <sodipodi:namedview
     id="namedview1"
     pagecolor="#ffffff"
     bordercolor="#000000"
     borderopacity="0.25"
     inkscape:showpageshadow="2"
     inkscape:pageopacity="0.0"
     inkscape:pagecheckerboard="0"
     inkscape:deskcolor="#d1d1d1"
     inkscape:document-units="mm"
     inkscape:zoom="1.07"
     inkscape:cx="195.79439"
     inkscape:cy="115.42056"
     inkscape:window-width="1832"
     inkscape:window-height="1011"
     inkscape:window-x="88"
     inkscape:window-y="32"
     inkscape:window-maximized="1"
     inkscape:current-layer="layer1" />
  <defs
     id="defs1" />
  <g
     inkscape:label="Layer 1"
     inkscape:groupmode="layer"
     id="layer1"
     transform="translate(-30.263426,-88.616402)">
    <rect
       style="fill:#ffffff;fill-opacity:1;stroke:#000000;stroke-width:0;stroke-dasharray:none;stroke-opacity:1"
       id="rect9"
       width="128"
       height="128"
       x="30.263426"
       y="88.616402" />
    <path
       style="fill:#ffffff;stroke:#000000;stroke-width:3;stroke-dasharray:none;stroke-opacity:1"
       d="m 83.031178,142.27874 c -0.153451,7.22101 -0.08035,11.15452 -0.129604,16.41471 -0.04942,5.27894 3.545177,15.15766 8.251764,15.38311 5.023259,0.24063 10.390642,-3.84767 9.937922,-17.26141 -0.41277,-12.22999 1.40088,-18.87535 1.78948,-24.53073 0.66759,-9.71543 1.72575,-12.33145 1.43519,-18.41765 -0.21266,-4.45433 -3.66832,-12.16674 -15.55121,-12.08839 -12.745569,0.78709 -11.103438,6.9354 -12.36536,13.07325 -1.170227,11.25699 -1.664093,16.38881 -1.595898,26.02948 0.05351,7.56456 -0.447964,14.36565 -0.419901,21.93676 0.03203,8.64291 -0.298557,11.05168 0.519585,19.9366 0.643518,6.98852 1.206377,10.34828 3.764135,14.91188 1.533822,2.73668 3.089885,6.61421 12.23487,6.52545 8.479378,-0.0823 11.885179,-4.6465 16.001179,-10.47155 1.96023,-2.77416 2.16642,-10.24009 2.73293,-13.5954 0.61896,-3.71378 1.44804,-6.28288 1.97833,-9.93164 0.70359,-4.84111 3.65687,-6.64039 5.61954,-12.1879"
       id="path1"
       sodipodi:nodetypes="csssssccssssssssc" />
    <rect
       style="fill:#ffffff;fill-opacity:1;stroke:#000000;stroke-width:2;stroke-dasharray:none;stroke-opacity:1"
       id="rect2"
       width="20"
       height="18"
       x="64.075012"
       y="121.18367"
       ry="9"
       rx="20" />
    <rect
       style="fill:#ffffff;fill-opacity:1;stroke:#000000;stroke-width:2;stroke-dasharray:none;stroke-opacity:1"
       id="rect3"
       width="20"
       height="18"
       x="96.979042"
       y="121.44706"
       ry="9"
       rx="10" />
    <g
       id="path4">
      <path
         style="color:#000000;fill:#000000;-inkscape-stroke:none"
         d="m 68.299799,116.24137 c 2.317115,-0.32653 3.449058,-0.54538 4.948426,-0.77516 1.499368,-0.22978 2.076439,-0.19634 3.828683,-0.3645 1.899106,-0.11433 3.3285,-0.0755 5.673973,0.50362 1.152163,0.43251 2.046557,1.1065 2.959681,1.15551 l 2.803164,-1.66263 c -1.428456,-1.41132 -3.308575,-2.29959 -4.470669,-2.47183 -1.497287,-0.20746 -2.487969,-0.43594 -4.154546,-0.3973 -0.774515,0.0928 -1.916492,0.0358 -3.40465,0.0609 -0.883044,0.0184 -1.99531,0.1106 -4.03737,0.52403 -1.288094,0.37563 -1.985151,0.47351 -4.136676,1.17052 -1.686192,0.77753 -2.499511,0.88918 -3.632835,1.86851 0.581342,0.66546 2.165104,0.59374 3.622819,0.38832 z"
         id="path9"
         sodipodi:nodetypes="szccccccccccss" />
    </g>
    <g
       id="path5">
      <path
         style="color:#000000;fill:#000000;-inkscape-stroke:none"
         d="m 112.56291,113.25455 c -1.35811,-0.34847 -2.79001,-0.5291 -4.20443,-0.48071 -1.82119,0.0303 -3.16334,0.0855 -4.98447,0.12014 -1.65241,0.30925 -2.8873,0.53907 -4.237655,1.07098 -0.503314,0.25237 -1.002956,0.51179 -1.496618,0.78238 -0.711281,0.32142 -1.495084,0.58964 -2.09055,1.09956 l 3.268308,2.23883 v 0 c 0.230852,-0.0951 0.444595,-0.22193 0.647552,-0.3674 0.46137,-0.30255 0.942433,-0.57385 1.422623,-0.8451 0.50029,-0.25649 0.78219,-0.27268 1.29928,-0.49451 1.12821,-0.50967 2.43078,-0.8625 3.67348,-0.9708 1.79902,-0.074 3.57835,-0.30708 5.41213,-0.0718 1.7025,0.0532 3.46474,0.37895 4.48749,0.20123 1.45484,-0.25281 -3.19714,-2.28282 -3.19714,-2.28282 z"
         id="path11"
         sodipodi:nodetypes="cccccccscccccsc" />
    </g>
    <rect
       style="fill:#000000;fill-opacity:1;stroke:#000000;stroke-width:2;stroke-dasharray:none;stroke-opacity:1"
       id="rect7"
       width="6"
       height="6"
       x="68.694214"
       y="129.93826"
       ry="3" />
    <rect
       style="fill:#000000;fill-opacity:1;stroke:#000000;stroke-width:2;stroke-dasharray:none;stroke-opacity:1"
       id="rect8"
       width="6"
       height="6"
       x="101.2536"
       y="130.26959"
       ry="3" />
  </g>
</svg>
