<?xml version="1.0" encoding="UTF-8" standalone="no"?>
<svg
   width="800"
   height="1000"
   version="1.1"
   id="svg21"
   sodipodi:docname="panda.svg"
   inkscape:version="1.3.2 (091e20ef0f, 2023-11-25)"
   xmlns:inkscape="http://www.inkscape.org/namespaces/inkscape"
   xmlns:sodipodi="http://sodipodi.sourceforge.net/DTD/sodipodi-0.dtd"
   xmlns="http://www.w3.org/2000/svg"
   xmlns:svg="http://www.w3.org/2000/svg">
  <defs
     id="defs21" />
  <sodipodi:namedview
     id="namedview21"
     pagecolor="#ffffff"
     bordercolor="#000000"
     borderopacity="0.25"
     inkscape:showpageshadow="2"
     inkscape:pageopacity="0.0"
     inkscape:pagecheckerboard="0"
     inkscape:deskcolor="#d1d1d1"
     inkscape:zoom="1.1384419"
     inkscape:cx="393.5203"
     inkscape:cy="493.21796"
     inkscape:window-width="1832"
     inkscape:window-height="1011"
     inkscape:window-x="88"
     inkscape:window-y="32"
     inkscape:window-maximized="1"
     inkscape:current-layer="svg21" />
  <circle
     cx="120"
     cy="100"
     r="90"
     stroke="black"
     stroke-width="10"
     fill="#333333"
     id="circle1" />
  <circle
     cx="600"
     cy="160"
     r="90"
     stroke="black"
     stroke-width="10"
     fill="#333333"
     id="circle2" />
  <!--body-->
  <ellipse
     cx="350"
     cy="600"
     rx="340"
     ry="200"
     stroke="black"
     stroke-width="10"
     fill="#333333"
     transform="rotate(10,350,600)"
     id="ellipse2"
     style="fill:#808080" />
  <!--the head-->
  <ellipse
     cx="350"
     cy="300"
     rx="280"
     ry="210"
     stroke="black"
     stroke-width="10"
     fill="white"
     transform="rotate(10,350,250)"
     id="ellipse3" />
  <!--Left Eye-->
  <ellipse
     cx="180"
     cy="260"
     rx="96"
     ry="120"
     stroke="black"
     stroke-width="10"
     fill="#333333"
     transform="rotate(30,180,300)"
     id="ellipse4" />
  <ellipse
     cx="180"
     cy="260"
     rx="64"
     ry="80"
     stroke="black"
     stroke-width="10"
     fill="white"
     transform="rotate(30,180,300)"
     id="ellipse5" />
  <ellipse
     cx="214"
     cy="250"
     rx="48"
     ry="60"
     stroke="black"
     stroke-width="10"
     fill="black"
     transform="rotate(30,214,250)"
     id="ellipse6" />
  <ellipse
     cx="240"
     cy="240"
     rx="16"
     ry="20"
     stroke="white"
     stroke-width="10"
     fill="white"
     transform="rotate(10,240,240)"
     id="ellipse7" />
  <!--Right Eye-->
  <ellipse
     cx="480"
     cy="300"
     rx="96"
     ry="120"
     stroke="black"
     stroke-width="10"
     fill="#333333"
     transform="rotate(-30,480,300)"
     id="ellipse8" />
  <ellipse
     cx="480"
     cy="300"
     rx="64"
     ry="80"
     stroke="black"
     stroke-width="10"
     fill="white"
     transform="rotate(-30,480,300)"
     id="ellipse9" />
  <ellipse
     cx="470"
     cy="290"
     rx="48"
     ry="60"
     stroke="black"
     stroke-width="10"
     fill="black"
     transform="rotate(-30,470,290)"
     id="ellipse10" />
  <ellipse
     cx="440"
     cy="270"
     rx="16"
     ry="20"
     stroke="white"
     stroke-width="10"
     fill="white"
     transform="rotate(-10,440,270)"
     id="ellipse11" />
  <!--Nose-->
  <ellipse
     cx="330"
     cy="350"
     rx="40"
     ry="30"
     stroke="black"
     stroke-width="10"
     fill="black"
     transform="rotate(10,300,350)"
     id="ellipse12" />
  <ellipse
     cx="320"
     cy="330"
     rx="5"
     ry="7"
     stroke="white"
     stroke-width="10"
     fill="white"
     transform="rotate(30,300,330)"
     id="ellipse13" />
  <!--mouth-->
  <!--curves using parabolas (quadratic curves)-->
  <path
     d="M330,388 Q305,430 280,380"
     stroke="black"
     stroke-width="10"
     fill="transparent"
     id="path13"
     style="fill:#ffffff;fill-opacity:1" />
  <path
     d="M330,388 Q355,430 380,380"
     stroke="black"
     stroke-width="10"
     fill="transparent"
     id="path14"
     style="fill:#ffffff;fill-opacity:1" />
  <!--feets-->
  <!--left-->
  <ellipse
     cx=" 100 "
     cy="660 "
     rx="80 "
     ry="120 "
     stroke="black "
     stroke-width="10 "
     fill="#333333 "
     transform="rotate(-20,100,660) "
     id="ellipse14"
     style="stroke-width:10;stroke-dasharray:none" />
  <ellipse
     cx="95 "
     cy="680 "
     rx="42 "
     ry="56 "
     stroke="black "
     stroke-width="10 "
     fill="white "
     transform="rotate(-10,95,680) "
     id="ellipse15" />
  <!--right-->
  <ellipse
     cx="550 "
     cy="720 "
     rx="80 "
     ry="120 "
     stroke="black "
     stroke-width="10 "
     fill="#333333 "
     transform="rotate(35,550,720) "
     id="ellipse16"
     style="stroke-width:10;stroke-dasharray:none" />
  <ellipse
     cx="555 "
     cy="740 "
     rx="42 "
     ry="56 "
     stroke="black "
     stroke-width="10 "
     fill="white "
     transform="rotate(25,555,740) "
     id="ellipse17" />
  <!--parabolas-->
  <!--left foot-->
  <path
     d="M140,575 Q170,680 160,760"
     stroke="black"
     stroke-width="10"
     fill="transparent"
     id="path17"
     style="fill:#333333;fill-opacity:1" />
  <!--right foot-->
  <path
     d="M540,624 Q470,710 475,815"
     stroke="black"
     stroke-width="10"
     fill="transparent"
     id="path18"
     style="fill:#333333;fill-opacity:1" />
  <!--body curves-->
  <!--left-->
  <path
     d="M165,610 Q240,680 235,780"
     stroke="black"
     stroke-width="10"
     fill="transparent"
     id="path19"
     style="stroke:#000000;stroke-opacity:1;fill:none;fill-opacity:1" />
  <!--right-->
  <path
     d="M495,660 Q395,730 390,805"
     stroke="black"
     stroke-width="10"
     fill="transparent"
     id="path20"
     style="fill:#333333;fill-opacity:1" />
  <!--central up-->
  <path
     d="M165,610 Q365,600 500,660"
     stroke="black"
     stroke-width="10"
     fill="transparent"
     id="path21"
     style="stroke:#000000;stroke-opacity:1;fill:#333333;fill-opacity:1" />
</svg>
